<svg id="Calque_1" data-name="Calque 1" xmlns="http://www.w3.org/2000/svg" viewBox="0 0 20.53 20"><defs><style>.cls-1{fill:#ff5a5a;stroke:#ff5a5a;}.cls-1,.cls-2{stroke-miterlimit:10;}.cls-2{fill:#fff;stroke:#1d1d1b;stroke-width:0.25px;}</style></defs><path d="M12,11a1,1,0,0,0-1,1v3a1,1,0,0,0,2,0V12A1,1,0,0,0,12,11Zm0-3a1,1,0,1,0,1,1A1,1,0,0,0,12,8Zm0-6A10,10,0,0,0,2,12a9.87,9.87,0,0,0,2.26,6.33l-2,2A1,1,0,0,0,3,22h9A10,10,0,0,0,12,2Zm0,18H5.41l.93-.93a1,1,0,0,0,.3-.71,1,1,0,0,0-.3-.7A8,8,0,1,1,12,20Z" transform="translate(-1.97 -2)"/><circle class="cls-1" cx="16.93" cy="3.9" r="3.1"/><path class="cls-2" d="M18.73,3.56a.71.71,0,0,1,.3-.1,1.07,1.07,0,0,1,.31,0,1.32,1.32,0,0,1,.3,0,.81.81,0,0,1,.27.11.53.53,0,0,1,.18.21.61.61,0,0,1,.07.32V6.07h.61a1.77,1.77,0,0,1,.08.22.8.8,0,0,1,0,.27.6.6,0,0,1-.11.4.44.44,0,0,1-.3.11h-.32v.86l-.23,0a1.43,1.43,0,0,1-.29,0h-.26a.52.52,0,0,1-.2-.07.4.4,0,0,1-.12-.16.72.72,0,0,1,0-.28V7.07H17.3A.61.61,0,0,1,17,6.81a.68.68,0,0,1-.11-.41,1.71,1.71,0,0,1,0-.31.69.69,0,0,1,.12-.29S18.49,3.73,18.73,3.56Zm.35,1.14h0l-.91,1.37h.93Z" transform="translate(-1.97 -2)"/></svg>